<mxfile host="Electron" modified="2025-01-09T09:02:29.354Z" agent="Mozilla/5.0 (Macintosh; Intel Mac OS X 10_15_7) AppleWebKit/537.36 (KHTML, like Gecko) draw.io/24.1.0 Chrome/120.0.6099.109 Electron/28.1.0 Safari/537.36" etag="tBITOEyfYPe_GmZX4cdq" version="24.1.0" type="device">
  <diagram name="第 1 页" id="8XeDxSWXpNwxsEIKNbOC">
    <mxGraphModel dx="1509" dy="1299" grid="0" gridSize="10" guides="1" tooltips="1" connect="1" arrows="1" fold="1" page="0" pageScale="1" pageWidth="827" pageHeight="1169" math="0" shadow="0">
      <root>
        <mxCell id="0" />
        <mxCell id="1" parent="0" />
        <mxCell id="P46stKMNZ5tjSq_5oSe0-2" value="ServerBootstrap" style="swimlane;whiteSpace=wrap;html=1;rounded=1;labelBackgroundColor=none;fillColor=#B2C9AB;strokeColor=#788AA3;fontColor=#46495D;" vertex="1" parent="1">
          <mxGeometry x="10" y="100" width="461" height="486" as="geometry" />
        </mxCell>
        <mxCell id="P46stKMNZ5tjSq_5oSe0-5" value="" style="edgeStyle=orthogonalEdgeStyle;rounded=1;orthogonalLoop=1;jettySize=auto;html=1;labelBackgroundColor=none;strokeColor=#788AA3;fontColor=default;" edge="1" parent="P46stKMNZ5tjSq_5oSe0-2" source="P46stKMNZ5tjSq_5oSe0-3" target="P46stKMNZ5tjSq_5oSe0-4">
          <mxGeometry relative="1" as="geometry" />
        </mxCell>
        <mxCell id="P46stKMNZ5tjSq_5oSe0-3" value="bind()" style="rounded=1;whiteSpace=wrap;html=1;labelBackgroundColor=none;fillColor=#B2C9AB;strokeColor=#788AA3;fontColor=#46495D;" vertex="1" parent="P46stKMNZ5tjSq_5oSe0-2">
          <mxGeometry x="155" y="40" width="130" height="30" as="geometry" />
        </mxCell>
        <mxCell id="P46stKMNZ5tjSq_5oSe0-7" value="" style="edgeStyle=orthogonalEdgeStyle;rounded=1;orthogonalLoop=1;jettySize=auto;html=1;labelBackgroundColor=none;strokeColor=#788AA3;fontColor=default;" edge="1" parent="P46stKMNZ5tjSq_5oSe0-2" source="P46stKMNZ5tjSq_5oSe0-4" target="P46stKMNZ5tjSq_5oSe0-6">
          <mxGeometry relative="1" as="geometry" />
        </mxCell>
        <mxCell id="P46stKMNZ5tjSq_5oSe0-4" value="doBind()" style="rounded=1;whiteSpace=wrap;html=1;labelBackgroundColor=none;fillColor=#B2C9AB;strokeColor=#788AA3;fontColor=#46495D;" vertex="1" parent="P46stKMNZ5tjSq_5oSe0-2">
          <mxGeometry x="155" y="110" width="130" height="30" as="geometry" />
        </mxCell>
        <mxCell id="P46stKMNZ5tjSq_5oSe0-10" value="" style="edgeStyle=orthogonalEdgeStyle;rounded=1;orthogonalLoop=1;jettySize=auto;html=1;labelBackgroundColor=none;strokeColor=#788AA3;fontColor=default;" edge="1" parent="P46stKMNZ5tjSq_5oSe0-2" source="P46stKMNZ5tjSq_5oSe0-6" target="P46stKMNZ5tjSq_5oSe0-9">
          <mxGeometry relative="1" as="geometry" />
        </mxCell>
        <mxCell id="P46stKMNZ5tjSq_5oSe0-12" style="edgeStyle=orthogonalEdgeStyle;rounded=1;orthogonalLoop=1;jettySize=auto;html=1;labelBackgroundColor=none;strokeColor=#788AA3;fontColor=default;" edge="1" parent="P46stKMNZ5tjSq_5oSe0-2" source="P46stKMNZ5tjSq_5oSe0-6">
          <mxGeometry relative="1" as="geometry">
            <mxPoint x="550" y="220" as="targetPoint" />
          </mxGeometry>
        </mxCell>
        <mxCell id="P46stKMNZ5tjSq_5oSe0-6" value="initAndRegister()初始化管道并且进行绑定" style="rounded=1;whiteSpace=wrap;html=1;labelBackgroundColor=none;fillColor=#B2C9AB;strokeColor=#788AA3;fontColor=#46495D;" vertex="1" parent="P46stKMNZ5tjSq_5oSe0-2">
          <mxGeometry x="120" y="190" width="200" height="60" as="geometry" />
        </mxCell>
        <mxCell id="P46stKMNZ5tjSq_5oSe0-78" value="" style="edgeStyle=orthogonalEdgeStyle;rounded=0;orthogonalLoop=1;jettySize=auto;html=1;strokeColor=#788AA3;fontColor=#46495D;fillColor=#B2C9AB;" edge="1" parent="P46stKMNZ5tjSq_5oSe0-2" source="P46stKMNZ5tjSq_5oSe0-9" target="P46stKMNZ5tjSq_5oSe0-77">
          <mxGeometry relative="1" as="geometry" />
        </mxCell>
        <mxCell id="P46stKMNZ5tjSq_5oSe0-9" value="init()初始化管道信息，给主事件组添加一个ServerBootstrapAcceptor用于处理客户端连接绑定到子事件组" style="rounded=1;whiteSpace=wrap;html=1;labelBackgroundColor=none;fillColor=#B2C9AB;strokeColor=#788AA3;fontColor=#46495D;" vertex="1" parent="P46stKMNZ5tjSq_5oSe0-2">
          <mxGeometry x="120" y="300" width="200" height="60" as="geometry" />
        </mxCell>
        <mxCell id="P46stKMNZ5tjSq_5oSe0-79" style="edgeStyle=orthogonalEdgeStyle;rounded=0;orthogonalLoop=1;jettySize=auto;html=1;strokeColor=#788AA3;fontColor=#46495D;fillColor=#B2C9AB;" edge="1" parent="P46stKMNZ5tjSq_5oSe0-2" source="P46stKMNZ5tjSq_5oSe0-77">
          <mxGeometry relative="1" as="geometry">
            <mxPoint x="220" y="599.7058823529414" as="targetPoint" />
          </mxGeometry>
        </mxCell>
        <mxCell id="P46stKMNZ5tjSq_5oSe0-77" value="绑定端口doBind()" style="rounded=1;whiteSpace=wrap;html=1;labelBackgroundColor=none;fillColor=#B2C9AB;strokeColor=#788AA3;fontColor=#46495D;" vertex="1" parent="P46stKMNZ5tjSq_5oSe0-2">
          <mxGeometry x="120" y="418" width="200" height="60" as="geometry" />
        </mxCell>
        <mxCell id="P46stKMNZ5tjSq_5oSe0-13" value="初始化" style="text;html=1;align=center;verticalAlign=middle;resizable=0;points=[];autosize=1;strokeColor=none;fillColor=none;rounded=1;labelBackgroundColor=none;fontColor=#46495D;" vertex="1" parent="1">
          <mxGeometry x="240" y="358" width="60" height="30" as="geometry" />
        </mxCell>
        <mxCell id="P46stKMNZ5tjSq_5oSe0-23" value="NioEventLoopGroup" style="swimlane;whiteSpace=wrap;html=1;rounded=1;labelBackgroundColor=none;fillColor=#B2C9AB;strokeColor=#788AA3;fontColor=#46495D;" vertex="1" parent="1">
          <mxGeometry x="560" y="100" width="560" height="390" as="geometry">
            <mxRectangle x="560" y="100" width="144" height="26" as="alternateBounds" />
          </mxGeometry>
        </mxCell>
        <mxCell id="P46stKMNZ5tjSq_5oSe0-25" value="" style="edgeStyle=orthogonalEdgeStyle;rounded=1;orthogonalLoop=1;jettySize=auto;html=1;labelBackgroundColor=none;strokeColor=#788AA3;fontColor=default;" edge="1" parent="P46stKMNZ5tjSq_5oSe0-23" source="P46stKMNZ5tjSq_5oSe0-16" target="P46stKMNZ5tjSq_5oSe0-24">
          <mxGeometry relative="1" as="geometry" />
        </mxCell>
        <mxCell id="P46stKMNZ5tjSq_5oSe0-16" value="NioEventLoopGroup.register()进行注册，调用next() 方法" style="rounded=1;whiteSpace=wrap;html=1;labelBackgroundColor=none;fillColor=#B2C9AB;strokeColor=#788AA3;fontColor=#46495D;" vertex="1" parent="P46stKMNZ5tjSq_5oSe0-23">
          <mxGeometry x="10" y="185" width="160" height="70" as="geometry" />
        </mxCell>
        <mxCell id="P46stKMNZ5tjSq_5oSe0-30" style="edgeStyle=orthogonalEdgeStyle;rounded=1;orthogonalLoop=1;jettySize=auto;html=1;exitX=0.25;exitY=0;exitDx=0;exitDy=0;entryX=0.25;entryY=1;entryDx=0;entryDy=0;labelBackgroundColor=none;strokeColor=#788AA3;fontColor=default;" edge="1" parent="P46stKMNZ5tjSq_5oSe0-23" source="P46stKMNZ5tjSq_5oSe0-24" target="P46stKMNZ5tjSq_5oSe0-27">
          <mxGeometry relative="1" as="geometry" />
        </mxCell>
        <mxCell id="P46stKMNZ5tjSq_5oSe0-34" style="edgeStyle=orthogonalEdgeStyle;rounded=1;orthogonalLoop=1;jettySize=auto;html=1;labelBackgroundColor=none;strokeColor=#788AA3;fontColor=default;" edge="1" parent="P46stKMNZ5tjSq_5oSe0-23" source="P46stKMNZ5tjSq_5oSe0-24">
          <mxGeometry relative="1" as="geometry">
            <mxPoint x="650" y="220" as="targetPoint" />
          </mxGeometry>
        </mxCell>
        <mxCell id="P46stKMNZ5tjSq_5oSe0-24" value="向父类获取到NioEventLoop对象" style="rounded=1;whiteSpace=wrap;html=1;labelBackgroundColor=none;fillColor=#B2C9AB;strokeColor=#788AA3;fontColor=#46495D;" vertex="1" parent="P46stKMNZ5tjSq_5oSe0-23">
          <mxGeometry x="260" y="185" width="160" height="70" as="geometry" />
        </mxCell>
        <mxCell id="P46stKMNZ5tjSq_5oSe0-32" style="edgeStyle=orthogonalEdgeStyle;rounded=1;orthogonalLoop=1;jettySize=auto;html=1;exitX=0.75;exitY=1;exitDx=0;exitDy=0;entryX=0.75;entryY=0;entryDx=0;entryDy=0;labelBackgroundColor=none;strokeColor=#788AA3;fontColor=default;" edge="1" parent="P46stKMNZ5tjSq_5oSe0-23" source="P46stKMNZ5tjSq_5oSe0-27" target="P46stKMNZ5tjSq_5oSe0-24">
          <mxGeometry relative="1" as="geometry" />
        </mxCell>
        <mxCell id="P46stKMNZ5tjSq_5oSe0-27" value="MultithreadEventExecutorGroup创建EventLoop对象进行注册" style="rounded=1;whiteSpace=wrap;html=1;labelBackgroundColor=none;fillColor=#B2C9AB;strokeColor=#788AA3;fontColor=#46495D;" vertex="1" parent="P46stKMNZ5tjSq_5oSe0-23">
          <mxGeometry x="260" y="30" width="160" height="70" as="geometry" />
        </mxCell>
        <mxCell id="P46stKMNZ5tjSq_5oSe0-14" value="register()" style="text;html=1;align=center;verticalAlign=middle;resizable=0;points=[];autosize=1;strokeColor=none;fillColor=none;rounded=1;labelBackgroundColor=none;fontColor=#46495D;" vertex="1" parent="1">
          <mxGeometry x="440" y="290" width="70" height="30" as="geometry" />
        </mxCell>
        <mxCell id="P46stKMNZ5tjSq_5oSe0-31" value="调用到父级next()" style="text;html=1;align=center;verticalAlign=middle;resizable=0;points=[];autosize=1;strokeColor=none;fillColor=none;rounded=1;labelBackgroundColor=none;fontColor=#46495D;" vertex="1" parent="1">
          <mxGeometry x="755" y="218" width="110" height="30" as="geometry" />
        </mxCell>
        <mxCell id="P46stKMNZ5tjSq_5oSe0-33" value="返回EventLoop对象" style="text;html=1;align=center;verticalAlign=middle;resizable=0;points=[];autosize=1;strokeColor=none;fillColor=none;rounded=1;labelBackgroundColor=none;fontColor=#46495D;" vertex="1" parent="1">
          <mxGeometry x="895" y="218" width="130" height="30" as="geometry" />
        </mxCell>
        <mxCell id="P46stKMNZ5tjSq_5oSe0-35" value="register()" style="text;html=1;align=center;verticalAlign=middle;resizable=0;points=[];autosize=1;strokeColor=none;fillColor=none;rounded=1;labelBackgroundColor=none;fontColor=#46495D;" vertex="1" parent="1">
          <mxGeometry x="1130" y="290" width="70" height="30" as="geometry" />
        </mxCell>
        <mxCell id="P46stKMNZ5tjSq_5oSe0-40" value="" style="edgeStyle=orthogonalEdgeStyle;rounded=1;orthogonalLoop=1;jettySize=auto;html=1;labelBackgroundColor=none;strokeColor=#788AA3;fontColor=default;" edge="1" parent="1" source="P46stKMNZ5tjSq_5oSe0-38" target="P46stKMNZ5tjSq_5oSe0-39">
          <mxGeometry relative="1" as="geometry" />
        </mxCell>
        <mxCell id="P46stKMNZ5tjSq_5oSe0-38" value="NioEventLoop没有复写register方法，调用父类SingleThreadEventLoop.register()方法，方法内部都调用了unsafe().register()" style="rounded=1;whiteSpace=wrap;html=1;labelBackgroundColor=none;fillColor=#B2C9AB;strokeColor=#788AA3;fontColor=#46495D;" vertex="1" parent="1">
          <mxGeometry x="1210" y="270" width="190" height="95" as="geometry" />
        </mxCell>
        <mxCell id="P46stKMNZ5tjSq_5oSe0-55" style="edgeStyle=orthogonalEdgeStyle;rounded=0;orthogonalLoop=1;jettySize=auto;html=1;entryX=0.5;entryY=0;entryDx=0;entryDy=0;strokeColor=#788AA3;fontColor=#46495D;fillColor=#B2C9AB;" edge="1" parent="1" source="P46stKMNZ5tjSq_5oSe0-39" target="P46stKMNZ5tjSq_5oSe0-49">
          <mxGeometry relative="1" as="geometry" />
        </mxCell>
        <mxCell id="P46stKMNZ5tjSq_5oSe0-39" value="NioEventLoop没有复写register方法，调用父类SingleThreadEventLoop.register()方法,通过Unsafe进行注册" style="rounded=1;whiteSpace=wrap;html=1;labelBackgroundColor=none;fillColor=#B2C9AB;strokeColor=#788AA3;fontColor=#46495D;" vertex="1" parent="1">
          <mxGeometry x="1479" y="270" width="190" height="95" as="geometry" />
        </mxCell>
        <mxCell id="P46stKMNZ5tjSq_5oSe0-42" value="&lt;span style=&quot;text-wrap: wrap;&quot;&gt;unsafe().register()&lt;/span&gt;" style="text;html=1;align=center;verticalAlign=middle;resizable=0;points=[];autosize=1;strokeColor=none;fillColor=none;rounded=1;labelBackgroundColor=none;fontColor=#46495D;" vertex="1" parent="1">
          <mxGeometry x="1260" y="388" width="120" height="30" as="geometry" />
        </mxCell>
        <mxCell id="P46stKMNZ5tjSq_5oSe0-44" value="NioMessageUnsafe" style="swimlane;whiteSpace=wrap;html=1;rounded=1;labelBackgroundColor=none;fillColor=#B2C9AB;strokeColor=#788AA3;fontColor=#46495D;startSize=23;" vertex="1" parent="1">
          <mxGeometry x="2074" y="-10" width="553" height="749" as="geometry" />
        </mxCell>
        <mxCell id="P46stKMNZ5tjSq_5oSe0-52" value="" style="edgeStyle=orthogonalEdgeStyle;rounded=0;orthogonalLoop=1;jettySize=auto;html=1;strokeColor=#788AA3;fontColor=#46495D;fillColor=#B2C9AB;" edge="1" parent="P46stKMNZ5tjSq_5oSe0-44" source="P46stKMNZ5tjSq_5oSe0-49" target="P46stKMNZ5tjSq_5oSe0-51">
          <mxGeometry relative="1" as="geometry" />
        </mxCell>
        <mxCell id="P46stKMNZ5tjSq_5oSe0-49" value="判断当前管道是否已经被注册了" style="rounded=1;whiteSpace=wrap;html=1;strokeColor=#788AA3;fontColor=#46495D;fillColor=#B2C9AB;" vertex="1" parent="P46stKMNZ5tjSq_5oSe0-44">
          <mxGeometry x="205" y="59" width="120" height="60" as="geometry" />
        </mxCell>
        <mxCell id="P46stKMNZ5tjSq_5oSe0-57" value="" style="edgeStyle=orthogonalEdgeStyle;rounded=0;orthogonalLoop=1;jettySize=auto;html=1;strokeColor=#788AA3;fontColor=#46495D;fillColor=#B2C9AB;" edge="1" parent="P46stKMNZ5tjSq_5oSe0-44" source="P46stKMNZ5tjSq_5oSe0-51" target="P46stKMNZ5tjSq_5oSe0-56">
          <mxGeometry relative="1" as="geometry" />
        </mxCell>
        <mxCell id="P46stKMNZ5tjSq_5oSe0-58" style="edgeStyle=orthogonalEdgeStyle;rounded=0;orthogonalLoop=1;jettySize=auto;html=1;entryX=0;entryY=0.5;entryDx=0;entryDy=0;strokeColor=#788AA3;fontColor=#46495D;fillColor=#B2C9AB;" edge="1" parent="P46stKMNZ5tjSq_5oSe0-44" source="P46stKMNZ5tjSq_5oSe0-51" target="P46stKMNZ5tjSq_5oSe0-54">
          <mxGeometry relative="1" as="geometry" />
        </mxCell>
        <mxCell id="P46stKMNZ5tjSq_5oSe0-66" value="" style="edgeStyle=orthogonalEdgeStyle;rounded=0;orthogonalLoop=1;jettySize=auto;html=1;strokeColor=#788AA3;fontColor=#46495D;fillColor=#B2C9AB;" edge="1" parent="P46stKMNZ5tjSq_5oSe0-44" source="P46stKMNZ5tjSq_5oSe0-51" target="P46stKMNZ5tjSq_5oSe0-65">
          <mxGeometry relative="1" as="geometry" />
        </mxCell>
        <mxCell id="P46stKMNZ5tjSq_5oSe0-51" value="调用register0()交给子类实现" style="rounded=1;whiteSpace=wrap;html=1;strokeColor=#788AA3;fontColor=#46495D;fillColor=#B2C9AB;" vertex="1" parent="P46stKMNZ5tjSq_5oSe0-44">
          <mxGeometry x="205" y="150" width="120" height="60" as="geometry" />
        </mxCell>
        <mxCell id="P46stKMNZ5tjSq_5oSe0-54" value="doRegister()方法通过NIO创建SelectionKey" style="rounded=1;whiteSpace=wrap;html=1;strokeColor=#788AA3;fontColor=#46495D;fillColor=#B2C9AB;" vertex="1" parent="P46stKMNZ5tjSq_5oSe0-44">
          <mxGeometry x="387" y="150" width="120" height="60" as="geometry" />
        </mxCell>
        <mxCell id="P46stKMNZ5tjSq_5oSe0-60" value="" style="edgeStyle=orthogonalEdgeStyle;rounded=0;orthogonalLoop=1;jettySize=auto;html=1;strokeColor=#788AA3;fontColor=#46495D;fillColor=#B2C9AB;" edge="1" parent="P46stKMNZ5tjSq_5oSe0-44" source="P46stKMNZ5tjSq_5oSe0-56" target="P46stKMNZ5tjSq_5oSe0-59">
          <mxGeometry relative="1" as="geometry" />
        </mxCell>
        <mxCell id="P46stKMNZ5tjSq_5oSe0-56" value="调用HandlerAdded()触发事件" style="rounded=1;whiteSpace=wrap;html=1;strokeColor=#788AA3;fontColor=#46495D;fillColor=#B2C9AB;" vertex="1" parent="P46stKMNZ5tjSq_5oSe0-44">
          <mxGeometry x="205" y="240" width="120" height="60" as="geometry" />
        </mxCell>
        <mxCell id="P46stKMNZ5tjSq_5oSe0-69" value="" style="edgeStyle=orthogonalEdgeStyle;rounded=0;orthogonalLoop=1;jettySize=auto;html=1;strokeColor=#788AA3;fontColor=#46495D;fillColor=#B2C9AB;" edge="1" parent="P46stKMNZ5tjSq_5oSe0-44" source="P46stKMNZ5tjSq_5oSe0-59" target="P46stKMNZ5tjSq_5oSe0-68">
          <mxGeometry relative="1" as="geometry" />
        </mxCell>
        <mxCell id="P46stKMNZ5tjSq_5oSe0-59" value="调用管道注册 channelRegisterd()" style="rounded=1;whiteSpace=wrap;html=1;strokeColor=#788AA3;fontColor=#46495D;fillColor=#B2C9AB;" vertex="1" parent="P46stKMNZ5tjSq_5oSe0-44">
          <mxGeometry x="205" y="333" width="120" height="60" as="geometry" />
        </mxCell>
        <mxCell id="P46stKMNZ5tjSq_5oSe0-61" value="管道注册成功后调用 channelActive()方法" style="rounded=1;whiteSpace=wrap;html=1;strokeColor=#788AA3;fontColor=#46495D;fillColor=#B2C9AB;" vertex="1" parent="P46stKMNZ5tjSq_5oSe0-44">
          <mxGeometry x="205" y="565" width="120" height="60" as="geometry" />
        </mxCell>
        <mxCell id="P46stKMNZ5tjSq_5oSe0-63" value="管道注册成功后调用 channelActive()方法" style="rounded=1;whiteSpace=wrap;html=1;strokeColor=#788AA3;fontColor=#46495D;fillColor=#B2C9AB;" vertex="1" parent="P46stKMNZ5tjSq_5oSe0-44">
          <mxGeometry x="205" y="662" width="120" height="60" as="geometry" />
        </mxCell>
        <mxCell id="P46stKMNZ5tjSq_5oSe0-64" value="" style="edgeStyle=orthogonalEdgeStyle;rounded=0;orthogonalLoop=1;jettySize=auto;html=1;strokeColor=#788AA3;fontColor=#46495D;fillColor=#B2C9AB;" edge="1" parent="P46stKMNZ5tjSq_5oSe0-44" source="P46stKMNZ5tjSq_5oSe0-61" target="P46stKMNZ5tjSq_5oSe0-63">
          <mxGeometry relative="1" as="geometry" />
        </mxCell>
        <mxCell id="P46stKMNZ5tjSq_5oSe0-65" value="管道" style="rounded=1;whiteSpace=wrap;html=1;strokeColor=#788AA3;fontColor=#46495D;fillColor=#B2C9AB;" vertex="1" parent="P46stKMNZ5tjSq_5oSe0-44">
          <mxGeometry x="31" y="150" width="120" height="60" as="geometry" />
        </mxCell>
        <mxCell id="P46stKMNZ5tjSq_5oSe0-70" value="" style="edgeStyle=orthogonalEdgeStyle;rounded=0;orthogonalLoop=1;jettySize=auto;html=1;strokeColor=#788AA3;fontColor=#46495D;fillColor=#B2C9AB;" edge="1" parent="P46stKMNZ5tjSq_5oSe0-44" source="P46stKMNZ5tjSq_5oSe0-68" target="P46stKMNZ5tjSq_5oSe0-61">
          <mxGeometry relative="1" as="geometry" />
        </mxCell>
        <mxCell id="P46stKMNZ5tjSq_5oSe0-68" value="isActive() 判断管道是否建立连接，也就是客户端，当服务端注册时不会执行" style="rhombus;whiteSpace=wrap;html=1;strokeColor=#788AA3;fontColor=#46495D;fillColor=#B2C9AB;" vertex="1" parent="P46stKMNZ5tjSq_5oSe0-44">
          <mxGeometry x="170.5" y="439" width="189" height="80" as="geometry" />
        </mxCell>
        <mxCell id="P46stKMNZ5tjSq_5oSe0-47" value="调用到AbstractChannel.AbstractUnsafe的register方法" style="text;html=1;align=center;verticalAlign=middle;resizable=0;points=[];autosize=1;strokeColor=none;fillColor=none;rounded=1;labelBackgroundColor=none;fontColor=#46495D;" vertex="1" parent="1">
          <mxGeometry x="1669" y="264" width="310" height="30" as="geometry" />
        </mxCell>
        <mxCell id="P46stKMNZ5tjSq_5oSe0-80" value="提交一个异步任务到线程池中" style="text;html=1;align=center;verticalAlign=middle;resizable=0;points=[];autosize=1;strokeColor=none;fillColor=none;fontColor=#46495D;" vertex="1" parent="1">
          <mxGeometry x="167" y="622" width="174" height="26" as="geometry" />
        </mxCell>
        <mxCell id="P46stKMNZ5tjSq_5oSe0-83" value="" style="edgeStyle=orthogonalEdgeStyle;rounded=0;orthogonalLoop=1;jettySize=auto;html=1;strokeColor=#788AA3;fontColor=#46495D;fillColor=#B2C9AB;" edge="1" parent="1" source="P46stKMNZ5tjSq_5oSe0-81" target="P46stKMNZ5tjSq_5oSe0-82">
          <mxGeometry relative="1" as="geometry" />
        </mxCell>
        <mxCell id="P46stKMNZ5tjSq_5oSe0-81" value="channel.bind()" style="rounded=1;whiteSpace=wrap;html=1;labelBackgroundColor=none;fillColor=#B2C9AB;strokeColor=#788AA3;fontColor=#46495D;" vertex="1" parent="1">
          <mxGeometry x="128" y="700" width="200" height="60" as="geometry" />
        </mxCell>
        <mxCell id="P46stKMNZ5tjSq_5oSe0-85" value="" style="edgeStyle=orthogonalEdgeStyle;rounded=0;orthogonalLoop=1;jettySize=auto;html=1;strokeColor=#788AA3;fontColor=#46495D;fillColor=#B2C9AB;" edge="1" parent="1" source="P46stKMNZ5tjSq_5oSe0-82" target="P46stKMNZ5tjSq_5oSe0-84">
          <mxGeometry relative="1" as="geometry" />
        </mxCell>
        <mxCell id="P46stKMNZ5tjSq_5oSe0-82" value="通过headContext.bind()" style="rounded=1;whiteSpace=wrap;html=1;labelBackgroundColor=none;fillColor=#B2C9AB;strokeColor=#788AA3;fontColor=#46495D;" vertex="1" parent="1">
          <mxGeometry x="408" y="700" width="200" height="60" as="geometry" />
        </mxCell>
        <mxCell id="P46stKMNZ5tjSq_5oSe0-87" value="" style="edgeStyle=orthogonalEdgeStyle;rounded=0;orthogonalLoop=1;jettySize=auto;html=1;strokeColor=#788AA3;fontColor=#46495D;fillColor=#B2C9AB;" edge="1" parent="1" source="P46stKMNZ5tjSq_5oSe0-84" target="P46stKMNZ5tjSq_5oSe0-86">
          <mxGeometry relative="1" as="geometry" />
        </mxCell>
        <mxCell id="P46stKMNZ5tjSq_5oSe0-84" value="发布channelActive()" style="rounded=1;whiteSpace=wrap;html=1;labelBackgroundColor=none;fillColor=#B2C9AB;strokeColor=#788AA3;fontColor=#46495D;" vertex="1" parent="1">
          <mxGeometry x="688" y="700" width="200" height="60" as="geometry" />
        </mxCell>
        <mxCell id="P46stKMNZ5tjSq_5oSe0-89" value="" style="edgeStyle=orthogonalEdgeStyle;rounded=0;orthogonalLoop=1;jettySize=auto;html=1;strokeColor=#788AA3;fontColor=#46495D;fillColor=#B2C9AB;" edge="1" parent="1" source="P46stKMNZ5tjSq_5oSe0-86" target="P46stKMNZ5tjSq_5oSe0-88">
          <mxGeometry relative="1" as="geometry" />
        </mxCell>
        <mxCell id="P46stKMNZ5tjSq_5oSe0-86" value="发布channelActive()" style="rounded=1;whiteSpace=wrap;html=1;labelBackgroundColor=none;fillColor=#B2C9AB;strokeColor=#788AA3;fontColor=#46495D;" vertex="1" parent="1">
          <mxGeometry x="968" y="700" width="200" height="60" as="geometry" />
        </mxCell>
        <mxCell id="P46stKMNZ5tjSq_5oSe0-91" value="" style="edgeStyle=orthogonalEdgeStyle;rounded=0;orthogonalLoop=1;jettySize=auto;html=1;strokeColor=#788AA3;fontColor=#46495D;fillColor=#B2C9AB;" edge="1" parent="1" source="P46stKMNZ5tjSq_5oSe0-88" target="P46stKMNZ5tjSq_5oSe0-90">
          <mxGeometry relative="1" as="geometry" />
        </mxCell>
        <mxCell id="P46stKMNZ5tjSq_5oSe0-88" value="调用HeadContext.ChannelActive()" style="rounded=1;whiteSpace=wrap;html=1;labelBackgroundColor=none;fillColor=#B2C9AB;strokeColor=#788AA3;fontColor=#46495D;" vertex="1" parent="1">
          <mxGeometry x="1248" y="700" width="200" height="60" as="geometry" />
        </mxCell>
        <mxCell id="P46stKMNZ5tjSq_5oSe0-90" value="调用到HeadContext.beginRead()调整SelectorKey.OP_ACCEPT" style="rounded=1;whiteSpace=wrap;html=1;labelBackgroundColor=none;fillColor=#B2C9AB;strokeColor=#788AA3;fontColor=#46495D;" vertex="1" parent="1">
          <mxGeometry x="1528" y="700" width="200" height="60" as="geometry" />
        </mxCell>
      </root>
    </mxGraphModel>
  </diagram>
</mxfile>
